<svg id="Layer_1" data-name="Layer 1" xmlns="http://www.w3.org/2000/svg" viewBox="0 0 74 9"><defs><style>.cls-1{fill:#fff;}</style></defs><title>Artboard 1</title><path class="cls-1" d="M2,3.63V8.18H.71V2.36h9.47a1.26,1.26,0,0,1,.45.08,1.13,1.13,0,0,1,.39.25,1.22,1.22,0,0,1,.27.4,1.37,1.37,0,0,1,.1.54V8.18H10.11v-4A.55.55,0,0,0,10,3.78a.42.42,0,0,0-.32-.15Z"/><path class="cls-1" d="M23.27,8.18H22V5.9H13.88V8.18H12.59V3.63a1.36,1.36,0,0,1,.1-.54,1.2,1.2,0,0,1,.27-.4,1.14,1.14,0,0,1,.38-.25,1.24,1.24,0,0,1,.46-.08h8.26a1.19,1.19,0,0,1,.45.09,1.18,1.18,0,0,1,.66.65,1.34,1.34,0,0,1,.1.53Zm-9.4-4v.46H22V4.17a.63.63,0,0,0-.11-.39.39.39,0,0,0-.33-.15H14.32a.38.38,0,0,0-.34.15A.68.68,0,0,0,13.88,4.17Z"/><path class="cls-1" d="M33.94,2.36a1.19,1.19,0,0,1,.45.09,1.18,1.18,0,0,1,.66.65,1.34,1.34,0,0,1,.1.53v1a1.26,1.26,0,0,1-.26.83,1.19,1.19,0,0,1-.64.41l.91,2.32H33.86l-1-2.28H25.76V8.18H24.47V2.36ZM25.76,3.63v1h7.66a.63.63,0,0,0,.32-.08.33.33,0,0,0,.14-.32V4.1a.45.45,0,0,0-.13-.36.51.51,0,0,0-.34-.11Z"/><path class="cls-1" d="M45.29,6.91a.42.42,0,0,0,.32-.15.55.55,0,0,0,.14-.39v-4H47V6.91a1.36,1.36,0,0,1-.1.55,1.22,1.22,0,0,1-.27.4,1.13,1.13,0,0,1-.39.25,1.26,1.26,0,0,1-.45.08H37.56a1.24,1.24,0,0,1-.46-.08,1.14,1.14,0,0,1-.38-.25,1.21,1.21,0,0,1-.27-.4,1.35,1.35,0,0,1-.1-.55V2.36h1.28v4a.61.61,0,0,0,.12.39.37.37,0,0,0,.3.15Z"/><path class="cls-1" d="M48.23,6.91h8.94a.5.5,0,0,0,.32-.11.42.42,0,0,0,.14-.35V6.34A.44.44,0,0,0,57.51,6a.5.5,0,0,0-.33-.1H49.43a1.18,1.18,0,0,1-1.2-1.27v-1a1.18,1.18,0,0,1,1.2-1.27h9.48V3.63H50a.52.52,0,0,0-.33.09.42.42,0,0,0-.11.34v.11a.41.41,0,0,0,.14.35.5.5,0,0,0,.32.11h7.74a1.17,1.17,0,0,1,.84.35,1.24,1.24,0,0,1,.36.94v1a1.18,1.18,0,0,1-1.2,1.27H48.23ZM52.85.39l.73.89.71-.89h1.33l-1,1.27H52.53l-1-1.27Z"/><path class="cls-1" d="M61.41,8.18h-1.3V2.36h1.3Z"/><path class="cls-1" d="M62.61,6.91h8.94a.5.5,0,0,0,.32-.11A.42.42,0,0,0,72,6.45V6.34A.44.44,0,0,0,71.89,6a.5.5,0,0,0-.33-.1H63.81a1.18,1.18,0,0,1-1.2-1.27v-1a1.18,1.18,0,0,1,1.2-1.27h9.48V3.63h-9a.52.52,0,0,0-.33.09.42.42,0,0,0-.11.34v.11a.41.41,0,0,0,.14.35.5.5,0,0,0,.32.11h7.74a1.17,1.17,0,0,1,.84.35,1.24,1.24,0,0,1,.36.94v1a1.18,1.18,0,0,1-1.2,1.27H62.61Z"/><path class="cls-1" d="M9.9.38h1.6L6.79,6.2H5.52L.81.38h1.6L6.15,4.94Z"/></svg>