<svg id="Layer_1" data-name="Layer 1" xmlns="http://www.w3.org/2000/svg" viewBox="0 0 8.5 73.5"><defs><style>.cls-1{fill:#f2f2f2;}</style></defs><title>Artboard 1</title><path class="cls-1" d="M4.87,2H.32V.71H6.14v9.47a1.26,1.26,0,0,1-.08.45,1.13,1.13,0,0,1-.25.39,1.22,1.22,0,0,1-.4.27,1.37,1.37,0,0,1-.54.1H.32V10.11h4A.55.55,0,0,0,4.72,10a.42.42,0,0,0,.15-.32Z"/><path class="cls-1" d="M.32,23.27V22H2.6V13.88H.32V12.59H4.87a1.36,1.36,0,0,1,.54.1,1.2,1.2,0,0,1,.4.27,1.14,1.14,0,0,1,.25.38,1.24,1.24,0,0,1,.08.46v8.26a1.19,1.19,0,0,1-.09.45,1.18,1.18,0,0,1-.65.66,1.34,1.34,0,0,1-.53.1Zm4-9.4H3.87V22h.46a.63.63,0,0,0,.39-.11.39.39,0,0,0,.15-.33V14.32A.38.38,0,0,0,4.72,14,.68.68,0,0,0,4.33,13.88Z"/><path class="cls-1" d="M6.14,33.94a1.19,1.19,0,0,1-.09.45,1.18,1.18,0,0,1-.65.66,1.34,1.34,0,0,1-.53.1h-1A1.26,1.26,0,0,1,3,34.89a1.19,1.19,0,0,1-.41-.64l-2.32.91V33.86l2.28-1V25.76H.32V24.47H6.14ZM4.87,25.76h-1v7.66a.63.63,0,0,0,.08.32.33.33,0,0,0,.32.14H4.4a.45.45,0,0,0,.36-.13.51.51,0,0,0,.11-.34Z"/><path class="cls-1" d="M1.59,45.29a.42.42,0,0,0,.15.32.55.55,0,0,0,.39.14h4V47H1.59a1.36,1.36,0,0,1-.55-.1,1.22,1.22,0,0,1-.4-.27,1.13,1.13,0,0,1-.25-.39,1.26,1.26,0,0,1-.08-.45V37.56a1.24,1.24,0,0,1,.08-.46,1.14,1.14,0,0,1,.25-.38,1.21,1.21,0,0,1,.4-.27,1.35,1.35,0,0,1,.55-.1H6.14v1.28h-4a.61.61,0,0,0-.39.12.37.37,0,0,0-.15.3Z"/><path class="cls-1" d="M1.59,48.23v8.94a.5.5,0,0,0,.11.32.42.42,0,0,0,.35.14h.11a.44.44,0,0,0,.35-.11.5.5,0,0,0,.1-.33V49.43a1.18,1.18,0,0,1,1.27-1.2h1a1.18,1.18,0,0,1,1.27,1.2v9.48H4.87V50a.52.52,0,0,0-.09-.33.42.42,0,0,0-.34-.11H4.33a.41.41,0,0,0-.35.14.5.5,0,0,0-.11.32v7.74a1.17,1.17,0,0,1-.35.84,1.24,1.24,0,0,1-.94.36h-1a1.18,1.18,0,0,1-1.27-1.2V48.23Zm6.52,4.62-.89.73.89.71v1.33l-1.27-1V52.53l1.27-1Z"/><path class="cls-1" d="M.32,61.41v-1.3H6.14v1.3Z"/><path class="cls-1" d="M1.59,62.61v8.94a.5.5,0,0,0,.11.32A.42.42,0,0,0,2,72h.11a.44.44,0,0,0,.35-.11.5.5,0,0,0,.1-.33V63.81a1.18,1.18,0,0,1,1.27-1.2h1a1.18,1.18,0,0,1,1.27,1.2v9.48H4.87v-9A.52.52,0,0,0,4.78,64a.42.42,0,0,0-.34-.11H4.33A.41.41,0,0,0,4,64a.5.5,0,0,0-.11.32v7.74a1.17,1.17,0,0,1-.35.84,1.24,1.24,0,0,1-.94.36h-1a1.18,1.18,0,0,1-1.27-1.2V62.61Z"/><path class="cls-1" d="M7.59,9.9v1.6L1.77,6.79V5.52L7.59.81v1.6L3,6.15Z"/></svg>