<?xml version="1.0" standalone="no"?>
<!DOCTYPE svg PUBLIC "-//W3C//DTD SVG 20010904//EN"
 "http://www.w3.org/TR/2001/REC-SVG-20010904/DTD/svg10.dtd">
<svg version="1.0" xmlns="http://www.w3.org/2000/svg"
 width="600.000000pt" height="600.000000pt" viewBox="0 0 600.000000 600.000000"
 preserveAspectRatio="xMidYMid meet">
<metadata>
Created by potrace 1.11, written by Peter Selinger 2001-2013
</metadata>
<g transform="translate(0.000000,600.000000) scale(0.100000,-0.100000)"
fill="#000000" stroke="none">
<path d="M339 4843 c6 -10 149 -189 319 -398 l308 -380 -318 -3 -318 -2 0
-1460 0 -1460 320 0 320 0 0 1140 0 1140 259 0 258 0 598 -740 598 -740 317 0
317 0 598 741 599 741 170 -4 c138 -2 177 -6 202 -20 47 -26 95 -77 118 -128
21 -45 21 -54 24 -1088 l3 -1042 319 0 320 0 0 1188 c0 1142 -1 1192 -19 1264
-31 120 -83 213 -165 293 -104 102 -217 153 -387 172 l-66 8 309 380 c170 209
313 388 319 398 9 16 -12 17 -389 17 l-399 0 -328 -400 -328 -400 -1217 0
-1217 0 -328 400 -328 400 -399 0 c-377 0 -398 -1 -389 -17z m3279 -1512 c-40
-49 -194 -238 -343 -420 -148 -181 -272 -330 -275 -330 -3 0 -126 149 -275
330 -148 182 -303 371 -343 420 l-73 89 691 0 691 0 -73 -89z"/>
</g>
</svg>
